# Blender v2.79 (sub 0) OBJ File: ''
# www.blender.org
v -2.255351 -1.000000 3.211465
v -2.255351 0.999999 3.211465
v -2.255351 0.232386 0.836612
v -2.255351 1.000000 -3.211465
v -2.255351 -0.999999 -3.211465
v 2.255351 1.000000 -3.211465
v 2.255351 -0.999999 -3.211465
v 2.255351 0.232386 0.110340
v 2.255351 0.999999 3.211465
v 2.255351 -1.000000 3.211465
vt 0.000000 0.000000
vt 1.000000 0.369746
vt 0.000000 1.000000
vt 1.000000 0.000000
vt 0.000000 1.000000
vt 0.000000 0.000000
vt 1.000000 0.517179
vt 1.000000 1.000000
vt 0.000000 1.000000
vt 1.000000 0.000000
vt 0.000000 1.000000
vt 0.000000 0.000000
vt 1.000000 0.000000
vt 1.000000 0.630254
vt 0.000000 1.000000
vt 0.000000 0.517179
vt 0.000000 0.000000
vt 1.000000 0.000000
vt 1.000000 1.000000
vt 1.000000 1.000000
vt 0.000000 0.000000
vt 1.000000 0.000000
vt 1.000000 1.000000
vt 1.000000 1.000000
vn -1.0000 -0.0000 0.0000
vn 0.0000 0.0000 -1.0000
vn 1.0000 0.0000 0.0000
vn 0.0000 -0.0000 1.0000
vn 0.0000 -1.0000 -0.0000
vn -0.0148 0.9593 -0.2820
vn -0.0262 0.9647 -0.2620
vn -0.0387 0.9700 -0.2401
vn 0.0176 0.9792 0.2023
vn 0.0140 0.9782 0.2071
vn 0.0000 0.9743 0.2252
vn 0.0000 0.9515 -0.3076
vn 0.0300 0.9821 0.1862
s 1
f 1/1/1 3/2/1 5/3/1
f 4/4/2 7/5/2 5/6/2
f 8/7/3 9/8/3 10/9/3
f 9/10/4 1/11/4 10/12/4
f 7/13/5 1/11/5 5/6/5
f 3/14/6 9/15/7 8/16/8
f 4/4/9 8/16/10 6/17/11
f 1/1/1 2/18/1 3/2/1
f 3/2/1 4/19/1 5/3/1
f 4/4/2 6/20/2 7/5/2
f 10/9/3 7/21/3 8/7/3
f 7/21/3 6/22/3 8/7/3
f 9/10/4 2/23/4 1/11/4
f 7/13/5 10/24/5 1/11/5
f 3/14/6 2/23/12 9/15/7
f 4/4/9 3/14/13 8/16/10
