# Blender v2.79 (sub 0) OBJ File: ''
# www.blender.org
v -2.255351 -1.000000 3.211465
v -2.255351 1.000000 3.211465
v -2.255351 -1.000000 -3.211465
v -2.255351 1.000000 -3.211465
v 2.255351 -1.000000 3.211465
v 2.255351 1.000000 3.211465
v 2.255351 -1.000000 -3.211465
v 2.255351 1.000000 -3.211465
v -2.255351 0.232386 0.836612
v 2.255351 0.232386 0.110340
vt 0.000000 0.000000
vt 1.000000 0.000000
vt 1.000000 0.369746
vt 1.000000 1.000000
vt 0.000000 1.000000
vt 0.000000 0.000000
vt 1.000000 0.000000
vt 1.000000 1.000000
vt 0.000000 1.000000
vt 0.000000 0.000000
vt 1.000000 0.000000
vt 1.000000 0.517179
vt 1.000000 1.000000
vt 0.000000 1.000000
vt 0.000000 0.000000
vt 1.000000 0.000000
vt 1.000000 1.000000
vt 0.000000 1.000000
vt 1.000000 0.000000
vt 1.000000 1.000000
vt 0.000000 0.517179
vt 1.000000 0.630254
vt 0.000000 1.000000
vt 0.000000 0.000000
vn -1.0000 0.0000 0.0000
vn 0.0000 0.0000 -1.0000
vn 1.0000 0.0000 0.0000
vn 0.0000 0.0000 1.0000
vn 0.0000 -1.0000 0.0000
vn -0.0217 0.9626 -0.2699
vn 0.0164 0.9789 0.2039
s off
f 1/1/1 2/2/1 9/3/1 4/4/1 3/5/1
f 3/6/2 4/7/2 8/8/2 7/9/2
f 7/10/3 8/11/3 10/12/3 6/13/3 5/14/3
f 5/15/4 6/16/4 2/17/4 1/18/4
f 3/6/5 7/19/5 5/20/5 1/18/5
f 10/21/6 9/22/6 2/17/6 6/23/6
f 8/24/7 4/7/7 9/22/7 10/21/7
