# Blender v2.79 (sub 0) OBJ File: ''
# www.blender.org
v 0.000000 -1.000000 -1.000000
v 0.000000 -1.000000 1.000000
v -0.382683 -0.923880 1.000000
v -0.382683 -0.923879 -1.000000
v 0.382683 -0.923879 -1.000000
v 0.382683 -0.923880 1.000000
v 0.707107 -0.707107 -1.000000
v 0.707107 -0.707107 1.000000
v 0.923879 -0.382683 -1.000000
v 0.923879 -0.382683 1.000000
v 0.707107 0.707107 -1.000000
v 0.707107 0.707107 1.000000
v 0.923879 0.382683 1.000000
v 0.923880 0.382683 -1.000000
v 1.000000 -0.000000 1.000000
v 1.000000 0.000000 -1.000000
v -0.707107 -0.707107 1.000000
v -0.707107 -0.707107 -1.000000
v -0.923879 -0.382684 1.000000
v -0.923879 -0.382684 -1.000000
v -1.000000 -0.000000 1.000000
v -1.000000 0.000000 -1.000000
v -0.923880 0.382683 1.000000
v -0.923879 0.382683 -1.000000
v -0.707107 0.707107 1.000000
v -0.707107 0.707107 -1.000000
v -0.382683 0.923880 1.000000
v -0.382683 0.923880 -1.000000
v 0.000000 1.000000 1.000000
v 0.000000 1.000000 -1.000000
v 0.382684 0.923879 -1.000000
v 0.382684 0.923879 1.000000
vt 0.500000 0.191539
vt 0.500000 0.832114
vt 0.375030 0.832114
vt 0.375030 0.191539
vt 0.624970 0.191539
vt 0.624970 0.832114
vt 0.749940 0.191539
vt 0.749941 0.832114
vt 0.874910 0.191539
vt 0.874911 0.832114
vt 1.249821 0.191538
vt 1.249821 0.832114
vt 1.124851 0.832114
vt 1.124851 0.191538
vt 0.999881 0.832114
vt 0.999880 0.191538
vt 0.250060 0.832114
vt 0.250060 0.191539
vt 0.125090 0.832114
vt 0.125090 0.191538
vt 0.000120 0.832114
vt 0.000120 0.191538
vt -0.124851 0.832114
vt -0.124850 0.191538
vt -0.249821 0.832114
vt -0.249820 0.191538
vt -0.374791 0.832113
vt -0.374790 0.191538
vt -0.499761 0.832113
vt -0.499760 0.191538
vt 0.403752 0.992504
vt 0.223464 0.917827
vt 0.085477 0.779841
vt 0.010798 0.599552
vt 0.010798 0.404409
vt 0.085476 0.224120
vt 0.223463 0.086133
vt 0.403751 0.011454
vt 0.598895 0.011454
vt 0.779183 0.086132
vt 0.917170 0.224119
vt 0.991848 0.404407
vt 0.991849 0.599551
vt 0.917171 0.779839
vt 0.779184 0.917826
vt 0.598895 0.992504
vt 1.499761 0.191538
vt 1.499761 0.832114
vt 1.374791 0.832114
vt 1.374791 0.191538
vt 0.213969 0.942535
vt 0.070712 0.799277
vt -0.006819 0.612102
vt -0.006819 0.409505
vt 0.070711 0.222330
vt 0.213969 0.079073
vt 0.401144 0.001541
vt 0.603741 0.001541
vt 0.790916 0.079072
vt 0.934174 0.222329
vt 1.011705 0.409505
vt 1.011705 0.612102
vt 0.934174 0.799277
vt 0.790916 0.942534
vt 0.603741 1.020065
vt 0.401144 1.020065
vn 0.0000 -1.0000 -0.0000
vn -0.3827 -0.9239 -0.0000
vn 0.3827 -0.9239 -0.0000
vn 0.7071 -0.7071 -0.0000
vn 0.9239 -0.3827 -0.0000
vn 0.7071 0.7071 0.0000
vn 0.9239 0.3827 0.0000
vn 1.0000 -0.0000 0.0000
vn -0.7071 -0.7071 -0.0000
vn -0.9239 -0.3827 -0.0000
vn -1.0000 -0.0000 -0.0000
vn -0.9239 0.3827 -0.0000
vn -0.7071 0.7071 0.0000
vn -0.3827 0.9239 0.0000
vn 0.0000 1.0000 0.0000
vn -0.0000 0.0000 -1.0000
vn 0.3827 0.9239 0.0000
vn -0.0000 -0.0000 1.0000
s 1
f 1/1/1 2/2/1 3/3/2 4/4/2
f 5/5/3 6/6/3 2/2/1 1/1/1
f 7/7/4 8/8/4 6/6/3 5/5/3
f 9/9/5 10/10/5 8/8/4 7/7/4
f 11/11/6 12/12/6 13/13/7 14/14/7
f 14/14/7 13/13/7 15/15/8 16/16/8
f 16/16/8 15/15/8 10/10/5 9/9/5
f 4/4/2 3/3/2 17/17/9 18/18/9
f 18/18/9 17/17/9 19/19/10 20/20/10
f 20/20/10 19/19/10 21/21/11 22/22/11
f 22/22/11 21/21/11 23/23/12 24/24/12
f 24/24/12 23/23/12 25/25/13 26/26/13
f 26/26/13 25/25/13 27/27/14 28/28/14
f 28/28/14 27/27/14 29/29/15 30/30/15
f 5/31/16 1/32/16 4/33/16 18/34/16 20/35/16 22/36/16 24/37/16 26/38/16 28/39/16 30/40/16 31/41/16 11/42/16 14/43/16 16/44/16 9/45/16 7/46/16
f 30/47/15 29/48/15 32/49/17 31/50/17
f 31/50/17 32/49/17 12/12/6 11/11/6
f 2/51/18 6/52/18 8/53/18 10/54/18 15/55/18 13/56/18 12/57/18 32/58/18 29/59/18 27/60/18 25/61/18 23/62/18 21/63/18 19/64/18 17/65/18 3/66/18
