# Blender v2.79 (sub 0) OBJ File: ''
# www.blender.org
v 0.382684 0.923879 1.000000
v 0.382684 0.923879 -1.000000
v 0.000000 1.000000 1.000000
v 0.000000 1.000000 -1.000000
v -0.382683 0.923880 1.000000
v -0.382683 0.923880 -1.000000
v -0.707107 0.707107 1.000000
v -0.707107 0.707107 -1.000000
v -0.923880 0.382683 1.000000
v -0.923879 0.382683 -1.000000
v -1.000000 -0.000000 1.000000
v -1.000000 -0.000000 -1.000000
v -0.923879 -0.382684 1.000000
v -0.923879 -0.382684 -1.000000
v -0.707107 -0.707107 1.000000
v -0.707107 -0.707107 -1.000000
v -0.382683 -0.923880 1.000000
v -0.382683 -0.923879 -1.000000
v -0.000000 -1.000000 1.000000
v 0.000000 -1.000000 -1.000000
v 0.382683 -0.923880 1.000000
v 0.382683 -0.923879 -1.000000
v 0.707107 -0.707107 1.000000
v 0.707107 -0.707107 -1.000000
v 0.923879 -0.382683 1.000000
v 0.923879 -0.382683 -1.000000
v 1.000000 -0.000000 1.000000
v 1.000000 0.000000 -1.000000
v 0.923879 0.382683 1.000000
v 0.923880 0.382683 -1.000000
v 0.707107 0.707107 1.000000
v 0.707107 0.707107 -1.000000
vt 0.000000 0.000000
vt 1.000000 0.000000
vt 1.000000 1.000000
vt 0.000000 1.000000
vt 0.000000 0.000000
vt 1.000000 0.000000
vt 1.000000 1.000000
vt 0.000000 1.000000
vt 0.000000 0.000000
vt 1.000000 0.000000
vt 1.000000 1.000000
vt 0.000000 1.000000
vt 0.000000 0.000000
vt 1.000000 0.000000
vt 1.000000 1.000000
vt 0.000000 1.000000
vt 0.000000 0.000000
vt 1.000000 0.000000
vt 1.000000 1.000000
vt 0.000000 1.000000
vt 0.000000 0.000000
vt 1.000000 0.000000
vt 1.000000 1.000000
vt 0.000000 1.000000
vt 0.000000 0.000000
vt 1.000000 0.000000
vt 1.000000 1.000000
vt 0.000000 1.000000
vt 0.000000 0.000000
vt 1.000000 0.000000
vt 1.000000 1.000000
vt 0.000000 1.000000
vt 0.000000 0.000000
vt 1.000000 0.000000
vt 1.000000 1.000000
vt 0.000000 1.000000
vt 0.000000 0.000000
vt 1.000000 0.000000
vt 1.000000 1.000000
vt 0.000000 1.000000
vt 0.000000 0.000000
vt 1.000000 0.000000
vt 1.000000 1.000000
vt 0.000000 1.000000
vt 0.000000 0.000000
vt 1.000000 0.000000
vt 1.000000 1.000000
vt 0.000000 1.000000
vt 0.000000 0.000000
vt 1.000000 0.000000
vt 1.000000 1.000000
vt 0.000000 1.000000
vt 0.000000 0.000000
vt 1.000000 0.000000
vt 1.000000 1.000000
vt 0.000000 1.000000
vt 0.308658 0.961940
vt 0.500000 1.000000
vt 0.691342 0.961940
vt 0.853553 0.853553
vt 0.961940 0.691342
vt 1.000000 0.500000
vt 0.961940 0.308658
vt 0.853553 0.146447
vt 0.691342 0.038060
vt 0.500000 0.000000
vt 0.308658 0.038060
vt 0.146447 0.146447
vt 0.038060 0.308658
vt 0.000000 0.500000
vt 0.038060 0.691342
vt 0.146447 0.853554
vt 0.000000 0.000000
vt 1.000000 0.000000
vt 1.000000 1.000000
vt 0.000000 1.000000
vt 0.000000 0.000000
vt 1.000000 0.000000
vt 1.000000 1.000000
vt 0.000000 1.000000
vt 0.500000 1.000000
vt 0.691342 0.961940
vt 0.853553 0.853553
vt 0.961940 0.691342
vt 1.000000 0.500000
vt 0.961940 0.308658
vt 0.853553 0.146447
vt 0.691342 0.038060
vt 0.500000 0.000000
vt 0.308658 0.038060
vt 0.146447 0.146446
vt 0.038060 0.308658
vt 0.000000 0.500000
vt 0.038060 0.691342
vt 0.146447 0.853554
vt 0.308659 0.961940
vn -0.1951 -0.9808 -0.0000
vn 0.1951 -0.9808 -0.0000
vn 0.5556 -0.8315 -0.0000
vn 0.8315 -0.5556 0.0000
vn 0.8315 0.5556 0.0000
vn 0.9808 0.1951 0.0000
vn 0.9808 -0.1951 0.0000
vn -0.5556 -0.8315 -0.0000
vn -0.8315 -0.5556 -0.0000
vn -0.9808 -0.1951 -0.0000
vn -0.9808 0.1951 -0.0000
vn -0.8315 0.5556 -0.0000
vn -0.5556 0.8315 0.0000
vn -0.1951 0.9808 0.0000
vn 0.0000 0.0000 -1.0000
vn 0.1951 0.9808 0.0000
vn 0.5556 0.8315 0.0000
vn 0.0000 -0.0000 1.0000
s off
f 20/1/1 19/2/1 17/3/1 18/4/1
f 22/5/2 21/6/2 19/7/2 20/8/2
f 24/9/3 23/10/3 21/11/3 22/12/3
f 26/13/4 25/14/4 23/15/4 24/16/4
f 32/17/5 31/18/5 29/19/5 30/20/5
f 30/21/6 29/22/6 27/23/6 28/24/6
f 28/25/7 27/26/7 25/27/7 26/28/7
f 18/29/8 17/30/8 15/31/8 16/32/8
f 16/33/9 15/34/9 13/35/9 14/36/9
f 14/37/10 13/38/10 11/39/10 12/40/10
f 12/41/11 11/42/11 9/43/11 10/44/11
f 10/45/12 9/46/12 7/47/12 8/48/12
f 8/49/13 7/50/13 5/51/13 6/52/13
f 6/53/14 5/54/14 3/55/14 4/56/14
f 22/57/15 20/58/15 18/59/15 16/60/15 14/61/15 12/62/15 10/63/15 8/64/15 6/65/15 4/66/15 2/67/15 32/68/15 30/69/15 28/70/15 26/71/15 24/72/15
f 4/73/16 3/74/16 1/75/16 2/76/16
f 2/77/17 1/78/17 31/79/17 32/80/17
f 19/81/18 21/82/18 23/83/18 25/84/18 27/85/18 29/86/18 31/87/18 1/88/18 3/89/18 5/90/18 7/91/18 9/92/18 11/93/18 13/94/18 15/95/18 17/96/18
