# Blender v2.79 (sub 0) OBJ File: ''
# www.blender.org
v -0.000000 0.281283 -2.014974
v -0.000000 -0.281283 -2.965642
v 0.771097 0.281283 -1.861593
v 1.134902 -0.281283 -2.739896
v 1.424802 0.281283 -1.424802
v 2.097026 -0.281283 -2.097026
v 1.861593 0.281283 -0.771097
v 2.739896 -0.281283 -1.134902
v 2.014974 0.281283 0.000000
v 2.965642 -0.281283 0.000000
v 1.861593 0.281283 0.771097
v 2.739896 -0.281283 1.134902
v 1.424802 0.281283 1.424802
v 2.097026 -0.281283 2.097026
v 0.771097 0.281283 1.861593
v 1.134902 -0.281283 2.739896
v 0.000000 0.281283 2.014974
v 0.000000 -0.281283 2.965642
v -0.771097 0.281283 1.861593
v -1.134902 -0.281283 2.739897
v -1.424802 0.281283 1.424802
v -2.097025 -0.281283 2.097027
v -1.861593 0.281283 0.771097
v -2.739897 -0.281283 1.134903
v -2.014974 0.281283 -0.000000
v -2.965642 -0.281283 -0.000000
v -1.861593 0.281283 -0.771098
v -2.739896 -0.281283 -1.134903
v -1.424802 0.281283 -1.424802
v -2.097025 -0.281283 -2.097027
v -0.771096 0.281283 -1.861594
v -1.134901 -0.281283 -2.739897
vt 0.000000 0.000000
vt 0.000000 1.000000
vt 1.000000 1.000000
vt 1.000000 0.000000
vt 0.000000 0.000000
vt 0.000000 1.000000
vt 1.000000 1.000000
vt 1.000000 0.000000
vt 0.000000 0.000000
vt 0.000000 1.000000
vt 1.000000 1.000000
vt 1.000000 0.000000
vt 0.000000 0.000000
vt 0.000000 1.000000
vt 1.000000 1.000000
vt 1.000000 0.000000
vt 0.000000 0.000000
vt 0.000000 1.000000
vt 1.000000 1.000000
vt 1.000000 0.000000
vt 0.000000 0.000000
vt 0.000000 1.000000
vt 1.000000 1.000000
vt 1.000000 0.000000
vt 0.000000 0.000000
vt 0.000000 1.000000
vt 1.000000 1.000000
vt 1.000000 0.000000
vt 0.000000 0.000000
vt 0.000000 1.000000
vt 1.000000 1.000000
vt 1.000000 0.000000
vt 0.000000 0.000000
vt 0.000000 1.000000
vt 1.000000 1.000000
vt 1.000000 0.000000
vt 0.000000 0.000000
vt 0.000000 1.000000
vt 1.000000 1.000000
vt 1.000000 0.000000
vt 0.000000 0.000000
vt 0.000000 1.000000
vt 1.000000 1.000000
vt 1.000000 0.000000
vt 0.000000 0.000000
vt 0.000000 1.000000
vt 1.000000 1.000000
vt 1.000000 0.000000
vt 0.000000 0.000000
vt 0.000000 1.000000
vt 1.000000 1.000000
vt 1.000000 0.000000
vt 0.000000 0.000000
vt 0.000000 1.000000
vt 1.000000 1.000000
vt 1.000000 0.000000
vt 0.500000 1.000000
vt 0.308659 0.961940
vt 0.146447 0.853554
vt 0.038060 0.691342
vt 0.000000 0.500000
vt 0.038060 0.308658
vt 0.146447 0.146446
vt 0.308658 0.038060
vt 0.500000 0.000000
vt 0.691342 0.038060
vt 0.853553 0.146447
vt 0.961940 0.308658
vt 1.000000 0.500000
vt 0.961940 0.691342
vt 0.853553 0.853553
vt 0.691342 0.961940
vt 0.000000 0.000000
vt 0.000000 1.000000
vt 1.000000 1.000000
vt 1.000000 0.000000
vt 0.000000 0.000000
vt 0.000000 1.000000
vt 1.000000 1.000000
vt 1.000000 0.000000
vt 0.500000 1.000000
vt 0.308659 0.961940
vt 0.146447 0.853554
vt 0.038060 0.691342
vt 0.000000 0.500000
vt 0.038060 0.308658
vt 0.146447 0.146446
vt 0.308658 0.038060
vt 0.500000 0.000000
vt 0.691342 0.038060
vt 0.853553 0.146447
vt 0.961940 0.308658
vt 1.000000 0.500000
vt 0.961940 0.691342
vt 0.853553 0.853553
vt 0.691342 0.961940
vn 0.1008 0.8562 -0.5067
vn 0.2870 0.8562 -0.4295
vn 0.4295 0.8562 -0.2870
vn 0.5067 0.8562 -0.1008
vn 0.5067 0.8562 0.1008
vn 0.4295 0.8562 0.2870
vn 0.2870 0.8562 0.4295
vn 0.1008 0.8562 0.5067
vn -0.1008 0.8562 0.5067
vn -0.2870 0.8562 0.4295
vn -0.4295 0.8562 0.2870
vn -0.5067 0.8562 0.1008
vn -0.5067 0.8562 -0.1008
vn -0.4295 0.8562 -0.2870
vn 0.0000 -1.0000 -0.0000
vn -0.2870 0.8562 -0.4295
vn -0.1008 0.8562 -0.5067
vn 0.0000 1.0000 -0.0000
s off
f 1/1/1 3/2/1 4/3/1 2/4/1
f 3/5/2 5/6/2 6/7/2 4/8/2
f 5/9/3 7/10/3 8/11/3 6/12/3
f 7/13/4 9/14/4 10/15/4 8/16/4
f 9/17/5 11/18/5 12/19/5 10/20/5
f 11/21/6 13/22/6 14/23/6 12/24/6
f 13/25/7 15/26/7 16/27/7 14/28/7
f 15/29/8 17/30/8 18/31/8 16/32/8
f 17/33/9 19/34/9 20/35/9 18/36/9
f 19/37/10 21/38/10 22/39/10 20/40/10
f 21/41/11 23/42/11 24/43/11 22/44/11
f 23/45/12 25/46/12 26/47/12 24/48/12
f 25/49/13 27/50/13 28/51/13 26/52/13
f 27/53/14 29/54/14 30/55/14 28/56/14
f 4/57/15 6/58/15 8/59/15 10/60/15 12/61/15 14/62/15 16/63/15 18/64/15 20/65/15 22/66/15 24/67/15 26/68/15 28/69/15 30/70/15 32/71/15 2/72/15
f 29/73/16 31/74/16 32/75/16 30/76/16
f 31/77/17 1/78/17 2/79/17 32/80/17
f 1/81/18 31/82/18 29/83/18 27/84/18 25/85/18 23/86/18 21/87/18 19/88/18 17/89/18 15/90/18 13/91/18 11/92/18 9/93/18 7/94/18 5/95/18 3/96/18
