# Blender v2.79 (sub 0) OBJ File: ''
# www.blender.org
v -0.923879 0.098286 -1.000000
v -0.923880 0.098286 1.000000
v -1.000000 0.480969 1.000000
v -1.000000 0.480969 -1.000000
v -0.707107 -0.226138 -1.000000
v -0.707107 -0.226138 1.000000
v -0.382683 -0.442910 -1.000000
v -0.382683 -0.442910 1.000000
v 0.707107 -0.226137 -1.000000
v 0.707107 -0.226137 1.000000
v 0.382683 -0.442910 1.000000
v 0.382683 -0.442910 -1.000000
v 0.000000 -0.519031 1.000000
v 0.000000 -0.519031 -1.000000
v -0.667109 0.204644 -1.000000
v -0.722074 0.480969 -1.000000
v -0.722074 0.480969 1.000000
v -0.667110 0.204644 1.000000
v 1.000000 0.480970 -1.000000
v 1.000000 0.480970 1.000000
v 0.923879 0.098286 1.000000
v 0.923879 0.098286 -1.000000
v -0.510583 -0.029614 -1.000000
v -0.510584 -0.029614 1.000000
v -0.276325 -0.186140 -1.000000
v -0.276326 -0.186140 1.000000
v 0.510584 -0.029614 -1.000000
v 0.276326 -0.186140 -1.000000
v 0.276325 -0.186140 1.000000
v 0.510584 -0.029614 1.000000
v 0.000000 -0.241105 -1.000000
v 0.000000 -0.241105 1.000000
v 0.722074 0.480970 -1.000000
v 0.667109 0.204643 -1.000000
v 0.667109 0.204643 1.000000
v 0.722074 0.480970 1.000000
vt -0.368248 0.183105
vt -0.368248 0.857360
vt -0.499788 0.857360
vt -0.499789 0.183105
vt -0.236707 0.183105
vt -0.236707 0.857360
vt -0.105166 0.183105
vt -0.105166 0.857360
vt 0.289456 0.183105
vt 0.289456 0.857360
vt 0.157915 0.857360
vt 0.157915 0.183105
vt 0.026375 0.857360
vt 0.026374 0.183105
vt 1.311110 0.183104
vt 1.406092 0.183104
vt 1.406092 0.857360
vt 1.311110 0.857360
vt 0.552537 0.183104
vt 0.552538 0.857360
vt 0.420997 0.857360
vt 0.420996 0.183105
vt 1.216127 0.183104
vt 1.216127 0.857360
vt 1.121145 0.183104
vt 1.121145 0.857360
vt 0.836198 0.183104
vt 0.931181 0.183104
vt 0.931181 0.857360
vt 0.836199 0.857360
vt 1.026163 0.183104
vt 1.026163 0.857360
vt 0.646234 0.183104
vt 0.741217 0.183104
vt 0.741217 0.857360
vt 0.646234 0.857360
vt 0.691428 0.028362
vt 0.638668 0.155733
vt 0.501596 0.128468
vt 0.501596 -0.009398
vt 0.043303 0.296824
vt 0.170674 0.349584
vt 0.143409 0.486655
vt 0.005543 0.486656
vt 0.501607 0.989393
vt 0.501654 0.852945
vt 0.637326 0.826007
vt 0.689498 0.952086
vt 0.010827 0.498274
vt 0.147275 0.498321
vt 0.174213 0.633992
vt 0.048134 0.686165
vt 0.848810 0.845716
vt 0.752361 0.749200
vt 0.829246 0.634219
vt 0.955290 0.686478
vt 0.364524 0.155734
vt 0.311765 0.028362
vt 0.313742 0.951956
vt 0.366002 0.825913
vt 0.959890 0.296823
vt 0.832519 0.349582
vt 0.754874 0.233378
vt 0.852360 0.135892
vt 0.997651 0.486655
vt 0.859784 0.486656
vt 0.856278 0.498565
vt 0.992726 0.498613
vt 0.248320 0.233379
vt 0.150833 0.135893
vt 1.499788 0.183104
vt 1.499789 0.857360
vt 0.154503 0.845477
vt 0.251020 0.749027
vn -0.9239 -0.3827 -0.0000
vn -0.9808 -0.1951 -0.0000
vn -0.7071 -0.7071 -0.0000
vn -0.3827 -0.9239 -0.0000
vn 0.7071 -0.7071 -0.0000
vn 0.3827 -0.9239 -0.0000
vn 0.0000 -1.0000 -0.0000
vn 0.9239 0.3827 0.0000
vn 0.9808 0.1951 0.0000
vn 0.9808 -0.1951 -0.0000
vn 0.9239 -0.3827 -0.0000
vn 0.7071 0.7071 0.0000
vn 0.3827 0.9239 0.0000
vn -0.7071 0.7071 0.0000
vn -0.3827 0.9239 0.0000
vn 0.0000 1.0000 0.0000
vn -0.9808 0.1951 0.0000
vn -0.9239 0.3827 0.0000
vn -0.0000 -0.0000 1.0000
vn 0.0000 0.0000 -1.0000
s 1
f 1/1/1 2/2/1 3/3/2 4/4/2
f 5/5/3 6/6/3 2/2/1 1/1/1
f 7/7/4 8/8/4 6/6/3 5/5/3
f 9/9/5 10/10/5 11/11/6 12/12/6
f 12/12/6 11/11/6 13/13/7 14/14/7
f 14/14/7 13/13/7 8/8/4 7/7/4
f 15/15/8 16/16/9 17/17/9 18/18/8
f 19/19/10 20/20/10 21/21/11 22/22/11
f 22/22/11 21/21/11 10/10/5 9/9/5
f 23/23/12 15/15/8 18/18/8 24/24/12
f 25/25/13 23/23/12 24/24/12 26/26/13
f 27/27/14 28/28/15 29/29/15 30/30/14
f 28/28/15 31/31/16 32/32/16 29/29/15
f 31/31/16 25/25/13 26/26/13 32/32/16
f 33/33/17 34/34/18 35/35/18 36/36/17
f 34/34/18 27/27/14 30/30/14 35/35/18
f 11/37/19 29/38/19 32/39/19 13/40/19
f 2/41/19 18/42/19 17/43/19 3/44/19
f 14/45/20 31/46/20 28/47/20 12/48/20
f 4/49/20 16/50/20 15/51/20 1/52/20
f 9/53/20 27/54/20 34/55/20 22/56/20
f 13/40/19 32/39/19 26/57/19 8/58/19
f 7/59/20 25/60/20 31/46/20 14/45/20
f 21/61/19 35/62/19 30/63/19 10/64/19
f 10/64/19 30/63/19 29/38/19 11/37/19
f 20/65/19 36/66/19 35/62/19 21/61/19
f 12/48/20 28/47/20 27/54/20 9/53/20
f 22/56/20 34/55/20 33/67/20 19/68/20
f 36/36/16 20/20/16 19/19/16 33/33/16
f 8/58/19 26/57/19 24/69/19 6/70/19
f 6/70/19 24/69/19 18/42/19 2/41/19
f 17/17/16 16/16/16 4/71/16 3/72/16
f 5/73/20 23/74/20 25/60/20 7/59/20
f 1/52/20 15/51/20 23/74/20 5/73/20
