# Blender v2.79 (sub 0) OBJ File: ''
# www.blender.org
v 0.000000 -1.000000 -1.000000
v 0.000000 -1.000000 1.000000
v -0.382683 -0.923880 1.000000
v -0.382683 -0.923879 -1.000000
v 0.382683 -0.923879 -1.000000
v 0.382683 -0.923880 1.000000
v 0.707107 -0.707107 -1.000000
v 0.707107 -0.707107 1.000000
v 0.923879 -0.382683 -1.000000
v 0.923879 -0.382683 1.000000
v 0.707107 0.707107 -1.000000
v 0.707107 0.707107 1.000000
v 0.923879 0.382683 1.000000
v 0.923880 0.382683 -1.000000
v 1.000000 -0.000000 1.000000
v 1.000000 0.000000 -1.000000
v -0.707107 -0.707107 1.000000
v -0.707107 -0.707107 -1.000000
v -0.923879 -0.382684 1.000000
v -0.923879 -0.382684 -1.000000
v -1.000000 -0.000000 1.000000
v -1.000000 0.000000 -1.000000
v -0.923880 0.382683 1.000000
v -0.923879 0.382683 -1.000000
v -0.707107 0.707107 1.000000
v -0.707107 0.707107 -1.000000
v -0.382683 0.923880 1.000000
v -0.382683 0.923880 -1.000000
v 0.000000 1.000000 1.000000
v 0.000000 1.000000 -1.000000
v 0.382684 0.923879 -1.000000
v 0.382684 0.923879 1.000000
v -0.667110 0.276325 1.000000
v -0.667109 0.276326 -1.000000
v -0.510584 -0.510584 1.000000
v -0.667109 -0.276326 1.000000
v -0.510584 -0.510584 -1.000000
v -0.667109 -0.276326 -1.000000
v 0.667109 -0.276325 -1.000000
v 0.667109 -0.276326 1.000000
v -0.510584 0.510583 1.000000
v -0.510584 0.510584 -1.000000
v -0.276325 -0.667109 -1.000000
v -0.276325 -0.667110 1.000000
v 0.000000 0.722074 1.000000
v 0.276326 0.667109 1.000000
v 0.000000 0.722074 -1.000000
v 0.276326 0.667109 -1.000000
v -0.276325 0.667110 1.000000
v 0.510584 -0.510584 1.000000
v 0.276325 -0.667110 1.000000
v 0.276325 -0.667109 -1.000000
v 0.510584 -0.510584 -1.000000
v -0.722074 -0.000000 1.000000
v 0.667109 0.276325 1.000000
v 0.722074 -0.000000 1.000000
v 0.667110 0.276326 -1.000000
v 0.722074 0.000000 -1.000000
v 0.510584 0.510584 -1.000000
v 0.510584 0.510583 1.000000
v 0.000000 -0.722074 -1.000000
v -0.276325 0.667110 -1.000000
v 0.000000 -0.722074 1.000000
v -0.722074 0.000000 -1.000000
vt 0.000000 0.000000
vt 0.000000 1.000000
vt 1.000000 1.000000
vt 1.000000 0.000000
vt 0.000000 0.000000
vt 0.000000 1.000000
vt 1.000000 1.000000
vt 1.000000 0.000000
vt 0.000000 0.000000
vt 0.000000 1.000000
vt 1.000000 1.000000
vt 1.000000 0.000000
vt 0.000000 0.000000
vt 0.000000 1.000000
vt 1.000000 1.000000
vt 1.000000 0.000000
vt 0.000000 0.000000
vt 0.000000 1.000000
vt 1.000000 1.000000
vt 1.000000 0.000000
vt 0.000000 0.000000
vt 0.000000 1.000000
vt 1.000000 1.000000
vt 1.000000 0.000000
vt 0.000000 0.000000
vt 0.000000 1.000000
vt 1.000000 1.000000
vt 1.000000 0.000000
vt 0.000000 0.000000
vt 0.000000 1.000000
vt 1.000000 1.000000
vt 1.000000 0.000000
vt 0.000000 0.000000
vt 0.000000 1.000000
vt 1.000000 1.000000
vt 1.000000 0.000000
vt 0.000000 0.000000
vt 0.000000 1.000000
vt 1.000000 1.000000
vt 1.000000 0.000000
vt 0.000000 0.000000
vt 0.000000 1.000000
vt 1.000000 1.000000
vt 1.000000 0.000000
vt 0.000000 0.000000
vt 0.000000 1.000000
vt 1.000000 1.000000
vt 1.000000 0.000000
vt 0.000000 0.000000
vt 0.000000 1.000000
vt 1.000000 1.000000
vt 1.000000 0.000000
vt 0.000000 0.000000
vt 0.000000 1.000000
vt 1.000000 1.000000
vt 1.000000 0.000000
vt 0.000000 0.000000
vt 0.000000 1.000000
vt 1.000000 1.000000
vt 1.000000 0.000000
vt 0.000000 0.000000
vt 0.000000 1.000000
vt 1.000000 1.000000
vt 1.000000 0.000000
vt 0.000000 0.000000
vt 0.000000 1.000000
vt 1.000000 1.000000
vt 1.000000 0.000000
vt 0.000000 0.000000
vt 0.000000 1.000000
vt 1.000000 1.000000
vt 1.000000 0.000000
vt 0.000000 0.000000
vt 0.000000 1.000000
vt 1.000000 1.000000
vt 1.000000 0.000000
vt 0.000000 0.000000
vt 0.000000 1.000000
vt 1.000000 1.000000
vt 1.000000 0.000000
vt 0.000000 0.000000
vt 0.000000 1.000000
vt 1.000000 1.000000
vt 1.000000 0.000000
vt 0.000000 0.000000
vt 0.000000 1.000000
vt 1.000000 1.000000
vt 1.000000 0.000000
vt 0.000000 0.000000
vt 0.000000 1.000000
vt 1.000000 1.000000
vt 1.000000 0.000000
vt 0.000000 0.000000
vt 0.000000 1.000000
vt 1.000000 1.000000
vt 1.000000 0.000000
vt 0.000000 0.000000
vt 0.000000 1.000000
vt 1.000000 1.000000
vt 1.000000 0.000000
vt 0.000000 0.000000
vt 0.000000 1.000000
vt 1.000000 1.000000
vt 1.000000 0.000000
vt 0.000000 0.000000
vt 0.000000 1.000000
vt 1.000000 1.000000
vt 1.000000 0.000000
vt 0.000000 0.000000
vt 0.000000 1.000000
vt 1.000000 1.000000
vt 1.000000 0.000000
vt 0.000000 0.000000
vt 0.000000 1.000000
vt 1.000000 1.000000
vt 1.000000 0.000000
vt 0.000000 0.000000
vt 0.000000 1.000000
vt 1.000000 1.000000
vt 1.000000 0.000000
vt 0.000000 0.000000
vt 0.000000 1.000000
vt 1.000000 1.000000
vt 1.000000 0.000000
vt 0.000000 0.000000
vt 0.000000 1.000000
vt 1.000000 1.000000
vt 1.000000 0.000000
vt 0.000000 0.000000
vt 0.000000 1.000000
vt 1.000000 0.000000
vt 0.000000 0.000000
vt 0.000000 1.000000
vt 1.000000 0.000000
vt 0.000000 0.000000
vt 0.000000 1.000000
vt 1.000000 0.000000
vt 0.000000 0.000000
vt 0.000000 1.000000
vt 1.000000 0.000000
vt 1.000000 1.000000
vt 0.000000 0.000000
vt 0.000000 1.000000
vt 1.000000 0.000000
vt 0.000000 0.000000
vt 0.000000 1.000000
vt 1.000000 0.000000
vt 1.000000 1.000000
vt 1.000000 1.000000
vt 1.000000 1.000000
vt 0.000000 0.000000
vt 0.000000 1.000000
vt 1.000000 0.000000
vt 1.000000 1.000000
vt 1.000000 1.000000
vt 1.000000 1.000000
vt 1.000000 1.000000
vt 0.000000 0.000000
vt 0.000000 1.000000
vt 1.000000 0.000000
vt 1.000000 1.000000
vt 0.000000 0.000000
vt 0.000000 1.000000
vt 1.000000 0.000000
vt 1.000000 1.000000
vt 1.000000 1.000000
vt 0.000000 0.000000
vt 0.000000 1.000000
vt 1.000000 0.000000
vt 0.000000 0.000000
vt 0.000000 1.000000
vt 1.000000 0.000000
vt 0.000000 0.000000
vt 0.000000 1.000000
vt 1.000000 0.000000
vt 1.000000 1.000000
vt 1.000000 1.000000
vt 1.000000 1.000000
vt 0.000000 0.000000
vt 0.000000 1.000000
vt 1.000000 0.000000
vt 0.000000 0.000000
vt 0.000000 1.000000
vt 1.000000 0.000000
vt 0.000000 0.000000
vt 0.000000 1.000000
vt 1.000000 0.000000
vt 0.000000 0.000000
vt 0.000000 1.000000
vt 1.000000 0.000000
vt 1.000000 1.000000
vt 1.000000 1.000000
vn -0.1951 -0.9808 -0.0000
vn 0.1951 -0.9808 -0.0000
vn 0.5556 -0.8315 -0.0000
vn 0.8315 -0.5556 -0.0000
vn 0.8315 0.5556 0.0000
vn 0.9808 0.1951 0.0000
vn 0.9808 -0.1951 -0.0000
vn -0.5556 -0.8315 -0.0000
vn -0.8315 -0.5556 -0.0000
vn -0.9808 -0.1951 -0.0000
vn -0.9808 0.1951 -0.0000
vn -0.8315 0.5556 -0.0000
vn -0.5556 0.8315 0.0000
vn -0.1951 0.9808 0.0000
vn 0.1951 0.9808 0.0000
vn 0.5556 0.8315 0.0000
vn 0.0000 0.0000 1.0000
vn 0.0000 0.0000 -1.0000
s 1
f 1/1/1 2/2/1 3/3/1 4/4/1
f 5/5/2 6/6/2 2/7/2 1/8/2
f 7/9/3 8/10/3 6/11/3 5/12/3
f 9/13/4 10/14/4 8/15/4 7/16/4
f 11/17/5 12/18/5 13/19/5 14/20/5
f 14/21/6 13/22/6 15/23/6 16/24/6
f 16/25/7 15/26/7 10/27/7 9/28/7
f 4/29/8 3/30/8 17/31/8 18/32/8
f 18/33/9 17/34/9 19/35/9 20/36/9
f 20/37/10 19/38/10 21/39/10 22/40/10
f 22/41/11 21/42/11 23/43/11 24/44/11
f 24/45/12 23/46/12 25/47/12 26/48/12
f 26/49/13 25/50/13 27/51/13 28/52/13
f 28/53/14 27/54/14 29/55/14 30/56/14
f 52/57/14 61/58/14 63/59/14 51/60/14
f 30/61/15 29/62/15 32/63/15 31/64/15
f 31/65/16 32/66/16 12/67/16 11/68/16
f 61/69/15 43/70/15 44/71/15 63/72/15
f 53/73/13 52/74/13 51/75/13 50/76/13
f 39/77/12 53/78/12 50/79/12 40/80/12
f 59/81/9 57/82/9 55/83/9 60/84/9
f 57/85/10 58/86/10 56/87/10 55/88/10
f 58/89/11 39/90/11 40/91/11 56/92/11
f 43/93/16 37/94/16 35/95/16 44/96/16
f 37/97/5 38/98/5 36/99/5 35/100/5
f 38/101/6 64/102/6 54/103/6 36/104/6
f 64/105/7 34/106/7 33/107/7 54/108/7
f 34/109/4 42/110/4 41/111/4 33/112/4
f 42/113/3 62/114/3 49/115/3 41/116/3
f 62/117/2 47/118/2 45/119/2 49/120/2
f 47/121/1 48/122/1 46/123/1 45/124/1
f 48/125/8 59/126/8 60/127/8 46/128/8
f 2/129/17 63/130/17 44/71/17 3/131/17
f 19/132/17 36/133/17 54/103/17 21/134/17
f 23/135/17 33/136/17 41/111/17 25/137/17
f 17/138/17 35/139/17 36/99/17 19/140/17
f 4/29/18 43/70/18 61/141/18 1/8/18
f 13/142/17 55/143/17 56/87/17 15/144/17
f 6/145/17 51/146/17 63/59/17 2/147/17
f 20/37/18 38/98/18 37/148/18 18/32/18
f 22/41/18 64/102/18 38/149/18 20/36/18
f 16/25/18 58/86/18 57/150/18 14/20/18
f 25/151/17 41/152/17 49/115/17 27/153/17
f 26/49/18 42/110/18 34/154/18 24/44/18
f 1/1/18 61/58/18 52/155/18 5/12/18
f 28/53/18 62/114/18 42/156/18 26/48/18
f 18/33/18 37/94/18 43/157/18 4/4/18
f 21/158/17 54/159/17 33/107/17 23/160/17
f 11/17/18 59/126/18 48/161/18 31/64/18
f 15/162/17 56/163/17 40/91/17 10/164/17
f 24/45/18 34/106/18 64/165/18 22/40/18
f 9/13/18 39/90/18 58/166/18 16/24/18
f 32/167/17 46/168/17 60/127/17 12/169/17
f 12/170/17 60/171/17 55/83/17 13/172/17
f 29/173/17 45/174/17 46/123/17 32/175/17
f 14/21/18 57/82/18 59/176/18 11/68/18
f 31/65/18 48/122/18 47/177/18 30/56/18
f 30/61/18 47/118/18 62/178/18 28/52/18
f 27/179/17 49/180/17 45/119/17 29/181/17
f 10/182/17 40/183/17 50/79/17 8/184/17
f 8/185/17 50/186/17 51/75/17 6/187/17
f 3/188/17 44/189/17 35/95/17 17/190/17
f 7/9/18 53/78/18 39/191/18 9/28/18
f 5/5/18 52/74/18 53/192/18 7/16/18
