# Blender v2.79 (sub 0) OBJ File: ''
# www.blender.org
v 0.000000 -1.000000 -1.000000
v 0.000000 -1.000000 1.000000
v -0.382683 -0.923880 1.000000
v -0.382683 -0.923879 -1.000000
v 0.382683 -0.923879 -1.000000
v 0.382683 -0.923880 1.000000
v 0.707107 -0.707107 -1.000000
v 0.707107 -0.707107 1.000000
v 0.923879 -0.382683 -1.000000
v 0.923879 -0.382683 1.000000
v 0.707107 0.707107 -1.000000
v 0.707107 0.707107 1.000000
v 0.923879 0.382683 1.000000
v 0.923880 0.382683 -1.000000
v 1.000000 -0.000000 1.000000
v 1.000000 0.000000 -1.000000
v -0.707107 -0.707107 1.000000
v -0.707107 -0.707107 -1.000000
v -0.923879 -0.382684 1.000000
v -0.923879 -0.382684 -1.000000
v -1.000000 -0.000000 1.000000
v -1.000000 0.000000 -1.000000
v -0.923880 0.382683 1.000000
v -0.923879 0.382683 -1.000000
v -0.707107 0.707107 1.000000
v -0.707107 0.707107 -1.000000
v -0.382683 0.923880 1.000000
v -0.382683 0.923880 -1.000000
v 0.000000 1.000000 1.000000
v 0.000000 1.000000 -1.000000
v 0.276325 -0.667109 -1.000000
v 0.000000 -0.722074 -1.000000
v 0.000000 -0.722074 1.000000
v 0.276325 -0.667110 1.000000
v 0.382684 0.923879 1.000000
v 0.382684 0.923879 -1.000000
v -0.276325 -0.667109 -1.000000
v -0.276325 -0.667110 1.000000
v 0.510584 -0.510584 -1.000000
v 0.510584 -0.510584 1.000000
v 0.667109 -0.276325 -1.000000
v 0.667109 -0.276326 1.000000
v 0.510584 0.510584 -1.000000
v 0.667110 0.276326 -1.000000
v 0.667109 0.276325 1.000000
v 0.510584 0.510583 1.000000
v 0.722074 0.000000 -1.000000
v 0.722074 -0.000000 1.000000
v -0.510584 -0.510584 -1.000000
v -0.510584 -0.510584 1.000000
v -0.667109 -0.276326 -1.000000
v -0.667109 -0.276326 1.000000
v -0.722074 0.000000 -1.000000
v -0.722074 -0.000000 1.000000
v -0.667109 0.276326 -1.000000
v -0.667110 0.276325 1.000000
v -0.510584 0.510584 -1.000000
v -0.510584 0.510583 1.000000
v -0.276325 0.667110 -1.000000
v -0.276325 0.667110 1.000000
v 0.000000 0.722074 -1.000000
v 0.000000 0.722074 1.000000
v 0.276326 0.667109 -1.000000
v 0.276326 0.667109 1.000000
vt 0.500000 0.191602
vt 0.500000 0.832116
vt 0.375042 0.832116
vt 0.375042 0.191602
vt 0.624958 0.191602
vt 0.624958 0.832116
vt 0.749916 0.191602
vt 0.749916 0.832116
vt 0.874874 0.191602
vt 0.874874 0.832116
vt 1.249748 0.191602
vt 1.249748 0.832116
vt 1.124790 0.832116
vt 1.124790 0.191602
vt 0.999832 0.832116
vt 0.999832 0.191602
vt 0.250084 0.832116
vt 0.250084 0.191602
vt 0.125126 0.832116
vt 0.125126 0.191602
vt 0.000168 0.832116
vt 0.000168 0.191602
vt -0.124790 0.832116
vt -0.124790 0.191602
vt -0.249748 0.832114
vt -0.249748 0.191602
vt -0.374706 0.832114
vt -0.374706 0.191602
vt -0.499666 0.832114
vt -0.499664 0.191600
vt 0.407573 0.160632
vt 0.497803 0.160632
vt 0.497803 0.801146
vt 0.407573 0.801146
vt 1.499664 0.191602
vt 1.499666 0.832116
vt 1.374706 0.832116
vt 1.374706 0.191602
vt 0.588031 0.160632
vt 0.588031 0.801146
vt 0.317345 0.160632
vt 0.317345 0.801146
vt 0.227115 0.160632
vt 0.227115 0.801146
vt -0.043571 0.160632
vt 0.046657 0.160632
vt 0.046657 0.801146
vt -0.043571 0.801146
vt 0.136887 0.160632
vt 0.136887 0.801146
vt 0.678261 0.160632
vt 0.678261 0.801146
vt 0.768489 0.160632
vt 0.768489 0.801146
vt 0.858719 0.160632
vt 0.858719 0.801146
vt 0.948947 0.160632
vt 0.948947 0.801146
vt 1.039177 0.160632
vt 1.039177 0.801146
vt 1.129405 0.160632
vt 1.129405 0.801146
vt 1.219635 0.160632
vt 1.219635 0.801146
vt -0.224031 0.160632
vt -0.133801 0.160632
vt -0.133801 0.801146
vt -0.224029 0.801146
vt 0.406166 0.007254
vt 0.432950 0.141914
vt 0.304365 0.195174
vt 0.228087 0.081017
vt 0.018028 0.395392
vt 0.152688 0.422176
vt 0.152688 0.561359
vt 0.018028 0.588143
vt 0.091789 0.766222
vt 0.205948 0.689944
vt 0.304365 0.788361
vt 0.228087 0.902520
vt 0.091789 0.217313
vt 0.205948 0.293591
vt 0.087525 0.776365
vt 0.201314 0.700334
vt 0.299412 0.798429
vt 0.223381 0.912218
vt 0.987055 0.588143
vt 0.852396 0.561359
vt 0.852396 0.422176
vt 0.987055 0.395392
vt 0.598917 0.007254
vt 0.572133 0.141914
vt 0.014001 0.406738
vt 0.148224 0.433435
vt 0.148224 0.572163
vt 0.014004 0.598864
vt 0.087525 0.229236
vt 0.201314 0.305267
vt 0.906363 0.776365
vt 0.792577 0.700334
vt 0.845664 0.572163
vt 0.979887 0.598864
vt 0.432950 0.841624
vt 0.406166 0.976281
vt 0.400879 0.019856
vt 0.427580 0.154079
vt 0.299412 0.207169
vt 0.223378 0.093380
vt 0.427580 0.851519
vt 0.400882 0.985743
vt 0.593009 0.019856
vt 0.566311 0.154079
vt 0.979887 0.406734
vt 0.845664 0.433435
vt 0.792577 0.305267
vt 0.906363 0.229233
vt 0.799135 0.293591
vt 0.913291 0.217313
vt 0.770510 0.912218
vt 0.694479 0.798429
vt 0.776997 0.902520
vt 0.700718 0.788361
vt 0.799135 0.689944
vt 0.913291 0.766222
vt 0.598917 0.976285
vt 0.572133 0.841624
vt 0.694479 0.207169
vt 0.770510 0.093380
vt 0.700718 0.195174
vt 0.776997 0.081017
vt 0.593009 0.985743
vt 0.566311 0.851519
vn 0.0000 -1.0000 -0.0000
vn -0.3827 -0.9239 -0.0000
vn 0.3827 -0.9239 -0.0000
vn 0.7071 -0.7071 -0.0000
vn 0.9239 -0.3827 -0.0000
vn 0.7071 0.7071 0.0000
vn 0.9239 0.3827 0.0000
vn 1.0000 -0.0000 0.0000
vn -0.7071 -0.7071 -0.0000
vn -0.9239 -0.3827 -0.0000
vn -1.0000 -0.0000 -0.0000
vn -0.9239 0.3827 -0.0000
vn -0.7071 0.7071 0.0000
vn -0.3827 0.9239 0.0000
vn 0.0000 1.0000 0.0000
vn 0.3827 0.9239 0.0000
vn 0.0000 -0.0000 1.0000
vn 0.0000 0.0000 -1.0000
s 1
f 1/1/1 2/2/1 3/3/2 4/4/2
f 5/5/3 6/6/3 2/2/1 1/1/1
f 7/7/4 8/8/4 6/6/3 5/5/3
f 9/9/5 10/10/5 8/8/4 7/7/4
f 11/11/6 12/12/6 13/13/7 14/14/7
f 14/14/7 13/13/7 15/15/8 16/16/8
f 16/16/8 15/15/8 10/10/5 9/9/5
f 4/4/2 3/3/2 17/17/9 18/18/9
f 18/18/9 17/17/9 19/19/10 20/20/10
f 20/20/10 19/19/10 21/21/11 22/22/11
f 22/22/11 21/21/11 23/23/12 24/24/12
f 24/24/12 23/23/12 25/25/13 26/26/13
f 26/26/13 25/25/13 27/27/14 28/28/14
f 28/28/14 27/27/14 29/29/15 30/30/15
f 31/31/14 32/32/15 33/33/15 34/34/14
f 30/35/15 29/36/15 35/37/16 36/38/16
f 36/38/16 35/37/16 12/12/6 11/11/6
f 32/32/15 37/39/16 38/40/16 33/33/15
f 39/41/13 31/31/14 34/34/14 40/42/13
f 41/43/12 39/41/13 40/42/13 42/44/12
f 43/45/9 44/46/10 45/47/10 46/48/9
f 44/46/10 47/49/11 48/50/11 45/47/10
f 47/49/11 41/43/12 42/44/12 48/50/11
f 37/39/16 49/51/6 50/52/6 38/40/16
f 49/51/6 51/53/7 52/54/7 50/52/6
f 51/53/7 53/55/8 54/56/8 52/54/7
f 53/55/8 55/57/5 56/58/5 54/56/8
f 55/57/5 57/59/4 58/60/4 56/58/5
f 57/59/4 59/61/3 60/62/3 58/60/4
f 59/61/3 61/63/1 62/64/1 60/62/3
f 61/65/1 63/66/2 64/67/2 62/68/1
f 63/66/2 43/45/9 46/48/9 64/67/2
f 2/69/17 33/70/17 38/71/17 3/72/17
f 19/73/17 52/74/17 54/75/17 21/76/17
f 23/77/17 56/78/17 58/79/17 25/80/17
f 17/81/17 50/82/17 52/74/17 19/73/17
f 4/83/18 37/84/18 32/85/18 1/86/18
f 13/87/17 45/88/17 48/89/17 15/90/17
f 6/91/17 34/92/17 33/70/17 2/69/17
f 20/93/18 51/94/18 49/95/18 18/96/18
f 22/97/18 53/98/18 51/94/18 20/93/18
f 16/99/18 47/100/18 44/101/18 14/102/18
f 25/80/17 58/79/17 60/103/17 27/104/17
f 26/105/18 57/106/18 55/107/18 24/108/18
f 1/86/18 32/85/18 31/109/18 5/110/18
f 28/111/18 59/112/18 57/106/18 26/105/18
f 18/96/18 49/95/18 37/84/18 4/83/18
f 21/76/17 54/75/17 56/78/17 23/77/17
f 11/113/18 43/114/18 63/115/18 36/116/18
f 15/90/17 48/89/17 42/117/17 10/118/17
f 24/108/18 55/107/18 53/98/18 22/97/18
f 9/119/18 41/120/18 47/100/18 16/99/18
f 35/121/17 64/122/17 46/123/17 12/124/17
f 12/124/17 46/123/17 45/88/17 13/87/17
f 29/125/17 62/126/17 64/122/17 35/121/17
f 14/102/18 44/101/18 43/114/18 11/113/18
f 36/116/18 63/115/18 61/127/18 30/128/18
f 30/128/18 61/127/18 59/112/18 28/111/18
f 27/104/17 60/103/17 62/126/17 29/125/17
f 10/118/17 42/117/17 40/129/17 8/130/17
f 8/130/17 40/129/17 34/92/17 6/91/17
f 3/72/17 38/71/17 50/82/17 17/81/17
f 7/131/18 39/132/18 41/120/18 9/119/18
f 5/110/18 31/109/18 39/132/18 7/131/18
