# Blender v2.79 (sub 0) OBJ File: ''
# www.blender.org
mtllib RobotHead.mtl
o Body
v -0.311908 1.175259 -0.597371
v 0.528768 1.170079 -0.602430
v 0.523934 1.164080 0.238857
v -0.317156 1.170079 0.243493
v -0.322109 1.952402 0.238517
v 0.518127 1.946971 0.233215
v 0.523633 1.952403 -0.607240
v -0.316164 1.957046 -0.601490
v -0.353137 1.265454 0.247008
v -0.353575 1.921118 0.239093
v -0.347657 1.925732 -0.601289
v -0.347747 1.270605 -0.601527
v 0.532266 1.265454 -0.638405
v -0.316063 1.270605 -0.633204
v -0.315949 1.925732 -0.632990
v 0.524223 1.921118 -0.638712
v 0.563575 1.265034 -0.607111
v 0.555507 1.920745 -0.607442
v 0.550028 1.915279 0.233421
v 0.558636 1.258985 0.241919
v -0.111707 0.840696 0.057419
v 0.371378 0.840696 0.057419
v 0.469391 1.188561 0.155432
v -0.209720 1.188561 0.155432
v 0.469391 1.188561 -0.523678
v -0.209720 1.188561 -0.523678
v 0.371378 0.840696 -0.425665
v -0.111707 0.840696 -0.425665
v -0.321850 1.265034 0.278323
v 0.526962 1.258985 0.273585
v -0.322312 1.920744 0.270385
v 0.518331 1.915279 0.265111
vt 0.375000 0.750000
vt 0.625000 0.750000
vt 0.625000 1.000000
vt 0.375000 1.000000
vt 0.383742 0.258748
vt 0.616285 0.254609
vt 0.616281 0.495587
vt 0.383720 0.495712
vt 0.366350 0.029880
vt 0.366300 0.235531
vt 0.133700 0.235499
vt 0.133650 0.029884
vt 0.616348 0.720120
vt 0.383652 0.720116
vt 0.383702 0.514501
vt 0.616298 0.514469
vt 0.866355 0.029876
vt 0.866305 0.235537
vt 0.633696 0.235576
vt 0.633646 0.029873
vt 0.375000 0.000000
vt 0.625000 0.000000
vt 0.625000 0.250000
vt 0.375000 0.250000
vt 0.625000 0.500000
vt 0.375000 0.500000
vt 0.625000 0.750000
vt 0.375000 0.750000
vt 0.625000 1.000000
vt 0.375000 1.000000
vt 0.875000 0.000000
vt 0.875000 0.250000
vt 0.125000 0.000000
vt 0.125000 0.250000
vt 0.383647 0.029877
vt 0.375000 0.000000
vt 0.616352 0.029873
vt 0.625000 0.000000
vt 0.625000 0.720197
vt 0.620927 0.735969
vt 0.379195 0.736045
vt 0.375000 0.720172
vt 0.383697 0.235536
vt 0.383832 0.245410
vt 0.375000 0.235706
vt 0.616302 0.235576
vt 0.625000 0.235769
vt 0.616396 0.245446
vt 0.133597 0.245380
vt 0.125000 0.235444
vt 0.875000 0.235709
vt 0.866170 0.245411
vt 0.875000 0.000000
vt 0.125000 0.000000
vt 0.375001 0.495697
vt 0.375027 0.258724
vt 0.633602 0.245446
vt 0.125000 0.029826
vt 0.625000 0.514534
vn -0.0067 -1.0000 -0.0067
vn 0.0060 1.0000 0.0060
vn -1.0000 -0.0003 -0.0067
vn -0.0065 -0.0001 -1.0000
vn 0.9999 0.0128 0.0063
vn 0.0000 -0.2712 0.9625
vn 0.0000 1.0000 0.0000
vn 0.0000 -0.2712 -0.9625
vn 0.0000 -1.0000 -0.0000
vn 0.9625 -0.2712 -0.0000
vn -0.9625 -0.2712 -0.0000
vn -0.6807 -0.2817 0.6763
vn 0.6806 -0.2708 0.6808
vn 0.6765 -0.2815 -0.6806
vn -0.6778 -0.2843 -0.6780
vn -0.5705 0.5845 0.5770
vn 0.5748 0.5823 0.5749
vn -0.5774 0.5770 -0.5776
vn 0.5770 0.5846 -0.5703
vn 0.0028 -0.3440 0.9390
vn -0.0078 -0.3524 -0.9358
vn 0.9391 -0.3438 0.0030
vn -0.9358 -0.3524 -0.0080
vn 0.0090 0.7094 0.7048
vn -0.7051 0.7091 -0.0011
vn 0.7047 0.7094 0.0092
vn -0.0009 0.7092 -0.7050
vn -0.7070 0.0004 -0.7072
vn 0.7070 0.0083 -0.7072
vn 0.7069 0.0184 0.7071
vn -0.7074 0.0081 0.7068
vn 0.0060 0.0125 0.9999
usemtl None
s off
f 1/1/1 2/2/1 3/3/1 4/4/1
f 5/5/2 6/6/2 7/7/2 8/8/2
f 9/9/3 10/10/3 11/11/3 12/12/3
f 13/13/4 14/14/4 15/15/4 16/16/4
f 17/17/5 18/18/5 19/19/5 20/20/5
f 21/21/6 22/22/6 23/23/6 24/24/6
f 24/24/7 23/23/7 25/25/7 26/26/7
f 26/26/8 25/25/8 27/27/8 28/28/8
f 28/28/9 27/27/9 22/29/9 21/30/9
f 22/22/10 27/31/10 25/32/10 23/23/10
f 28/33/11 21/21/11 24/24/11 26/34/11
f 29/35/12 9/9/12 4/36/12
f 30/37/13 3/38/13 20/20/13
f 13/13/14 17/39/14 2/40/14
f 14/14/15 1/41/15 12/42/15
f 31/43/16 5/44/16 10/45/16
f 32/46/17 19/47/17 6/48/17
f 11/11/18 8/49/18 15/50/18
f 18/18/19 16/51/19 7/52/19
f 4/36/20 3/38/20 30/37/20 29/35/20
f 2/2/21 1/1/21 14/14/21 13/13/21
f 3/38/22 2/53/22 17/17/22 20/20/22
f 9/9/23 12/12/23 1/54/23 4/36/23
f 31/43/24 32/46/24 6/48/24 5/44/24
f 5/5/25 8/8/25 11/55/25 10/56/25
f 19/19/26 18/18/26 7/52/26 6/57/26
f 8/8/27 7/7/27 16/16/27 15/15/27
f 12/12/28 11/11/28 15/50/28 14/58/28
f 13/13/29 16/16/29 18/59/29 17/39/29
f 20/20/30 19/19/30 32/46/30 30/37/30
f 29/35/31 31/43/31 10/10/31 9/9/31
f 30/37/32 32/46/32 31/43/32 29/35/32
